<svg xmlns="http://www.w3.org/2000/svg" viewBox="0 0 125.24 95.48"><defs><style>.cls-1,.cls-3,.cls-4{fill:#f5f4f2;}.cls-2{fill:#ebb7b5;}.cls-3,.cls-4{stroke:#f5f4f2;stroke-miterlimit:10;}.cls-3{stroke-width:0.86px;}.cls-4{stroke-width:0.76px;}</style></defs><g id="Calque_2" data-name="Calque 2"><g id="Calque_7" data-name="Calque 7"><path class="cls-1" d="M8.1,13.29a2.09,2.09,0,0,1,0-.25,2.11,2.11,0,0,0-.18-1.27c-.44-.68-1.31-.55-2-.57l-1.19,0c-.81,0-1.64.08-2.45,0,0,0-2.29-.13-2.29-5.14s2.61-5,2.61-5H23.93s2.75.67,2.65,4.3-1,5.84-2.33,5.84l-4.53,0s-1.16,0-1.16,2v19a6.13,6.13,0,0,1-5.27,2.62,6.07,6.07,0,0,1-5.24-2.57V16.87c0-1.2,0-2.39,0-3.58Z"/><path class="cls-1" d="M39.62.8c-.57,0-1.15.1-1.71.19a9,9,0,0,0-6.14,3.42,10.64,10.64,0,0,0-1.48,5c-.33,3.46-.12,6.94-.18,10.42,0,2-.16,4.1,0,6.14.31,3.71,1.83,7.89,5.71,9.07a17.55,17.55,0,0,0,5.22.5l5.83,0c1.13,0,2.47-.12,3-1.1a3,3,0,0,0,.31-1.22,19.94,19.94,0,0,0-.19-5.4,2.63,2.63,0,0,0-.39-1.12,2.89,2.89,0,0,0-2.46-.77l-3.71,0a5.81,5.81,0,0,1-2.16-.26,1.88,1.88,0,0,1-1.26-1.63c0-1,1.12-1.71,2.13-1.91a18.5,18.5,0,0,1,4.46,0,3,3,0,0,0,2.17-.51,2.76,2.76,0,0,0,.71-1.62,9.9,9.9,0,0,0-.08-3.64,2.59,2.59,0,0,0-.8-1.58,3.13,3.13,0,0,0-2-.42q-1.79,0-3.57-.06a2.54,2.54,0,0,1-1.92-.66,1.66,1.66,0,0,1,.26-2.15,3.34,3.34,0,0,1,2.19-.79c1,0,2.08.17,3.13.16a3.73,3.73,0,0,0,2.84-1.07,4.53,4.53,0,0,0,.78-3c0-1,0-2.05-.1-3.07a4.22,4.22,0,0,0-.38-1.69A3.07,3.07,0,0,0,47.74.74,10.85,10.85,0,0,0,45.13.67c-1.83.07-3.68,0-5.51.11Z"/><circle class="cls-2" cx="119.92" cy="31.61" r="5.3"/><path class="cls-1" d="M72.9,2.65A2.42,2.42,0,0,0,72.26,1,2.88,2.88,0,0,0,70.73.38a12,12,0,0,0-14,10c-.55,3.71.67,7.5,2.49,10.78.63,1.15,1.37,2.43,1,3.68-.45,1.47-2.32,2.1-3.81,1.72-.62-.16-1.46-.36-1.76.2a1.15,1.15,0,0,0-.1.55c-.06,2.06-.1,4.12-.1,6.19,0,.77-.2,1.7.3,2.33A4,4,0,0,0,57,37,12.49,12.49,0,0,0,71.67,21.63a19.33,19.33,0,0,0-2.39-5.23,5.6,5.6,0,0,1-1.15-2.92,3.32,3.32,0,0,1,3.49-2.9c.4,0,.88.05,1.12-.27a1.12,1.12,0,0,0,.15-.68V3.45a7.4,7.4,0,0,0,0-.81Z"/><path class="cls-1" d="M95.07,2.65A2.42,2.42,0,0,0,94.43,1,2.88,2.88,0,0,0,92.9.38a12,12,0,0,0-14,10c-.55,3.71.67,7.5,2.49,10.78.63,1.15,1.37,2.43,1,3.68C82,26.35,80.09,27,78.6,26.6c-.62-.16-1.46-.36-1.76.2a1.15,1.15,0,0,0-.1.55c-.06,2.06-.1,4.12-.1,6.19,0,.77-.2,1.7.3,2.33A4,4,0,0,0,79.2,37,12.49,12.49,0,0,0,93.84,21.63a19.33,19.33,0,0,0-2.39-5.23,5.6,5.6,0,0,1-1.15-2.92,3.32,3.32,0,0,1,3.49-2.9c.4,0,.88.05,1.12-.27a1.12,1.12,0,0,0,.15-.68V3.45a7.4,7.4,0,0,0,0-.81Z"/><path class="cls-1" d="M109.81,30.38l.15,2.15c.08,1.21.06,2.65-.95,3.32a3.47,3.47,0,0,1-1.65.43,40.27,40.27,0,0,1-4.79.07,3.58,3.58,0,0,1-2.6-.89c-.81-.9-.6-2.55-.59-3.67,0-2.54.07-5.08.1-7.61,0-3.26.08-6.52.06-9.77a22.56,22.56,0,0,1,.28-4.72A11.74,11.74,0,0,1,103.91,3a14.22,14.22,0,0,1,7.85-3,13.92,13.92,0,0,1,7.09,1.25,10.59,10.59,0,0,1,5.05,5.05c1,2.32,1.1,4.95,1.13,7.49l.21,15.2a5.75,5.75,0,0,0-5-4.3,5.26,5.26,0,0,0-5.3,3.83q-.09-7-.17-14a7,7,0,0,0-.37-2.62,2.39,2.39,0,0,0-2-1.57c-1.33-.05-2.25,1.41-2.39,2.74s.11,2.92-.09,4.39a1,1,0,0,0,.17.8,1,1,0,0,0,.86.24,3.56,3.56,0,0,1,.92-.06c.88.14,1,1.09,1.06,1.82.06,1.87.1,3.74.11,5.62,0,.7-.09,1.57-.74,1.84s-1.56-.29-2.15.14a1.54,1.54,0,0,0-.38,1.41c0,.35,0,.69.07,1Z"/><path class="cls-3" d="M62.3,94.36c.54-.6.32-2.48.37-3.14.11-1.51.22-3,.32-4.53a83.29,83.29,0,0,0,.18-8.51c-.22-5.44-1.51-11.05-4.8-15.08-3-3.71-7.38-5.65-11.39-7.94-3.83-2.19-7.56-4.82-11.8-5.7a5.71,5.71,0,0,0-3.07,0,3,3,0,0,0-2,2.41c-.3,2.64,2.78,3.92,4.44,4.85s3.53,2,5.3,2.93c.45.25,4.25,1.9,3,3a1,1,0,0,1-1,0A45.24,45.24,0,0,1,20.16,44.5c-.93-1.47-1.86-3.06-3.32-3.8s-3.61-.09-3.91,1.67A4.74,4.74,0,0,0,14,45.6l3.75,5.84a113.75,113.75,0,0,0,7.9,11.28c5.2,6.25,11.58,11.11,18,15.71a6.07,6.07,0,0,1,2,2,6.71,6.71,0,0,1,.54,2.83c.14,3.57,0,7.14-.06,10.71a.53.53,0,0,0,.11.41.49.49,0,0,0,.36.09l14.43.17a2.1,2.1,0,0,0,1.09-.19l.14-.11Z"/><path class="cls-3" d="M69.12,94.19h0c-.18-5.44-.91-10.86-.68-16.3s1.51-11,4.8-15.08c3-3.71,7.38-5.65,11.39-7.94,3.83-2.19,7.56-4.82,11.8-5.7a5.71,5.71,0,0,1,3.07,0,3,3,0,0,1,2,2.41c.3,2.64-2.78,3.92-4.44,4.85s-3.53,2-5.3,2.93c-.45.25-4.25,1.9-3,3a1,1,0,0,0,1,0,45.24,45.24,0,0,0,21.72-18.18c.93-1.47,1.86-3.06,3.32-3.8s3.61-.09,3.91,1.67a4.74,4.74,0,0,1-1.07,3.23l-3.75,5.84a113.75,113.75,0,0,1-7.9,11.28c-5.2,6.25-11.58,11.11-18,15.71a6.07,6.07,0,0,0-2,2A6.71,6.71,0,0,0,85.35,83c-.12,3.19-.06,6.38,0,9.57,0,.38,0,.77,0,1.15,0,.54,0,.48-.52.48H78.38c-.75,0-8.67,0-9.25,0Z"/><path class="cls-3" d="M28.58,52.5s.21-4,3-4.55l-3-3.79a11.87,11.87,0,0,0-2.66-3,2.54,2.54,0,0,0-2.94,0,2.66,2.66,0,0,0-.7,1.8c-.13,1.63.75,2.44,1.62,3.57l2.36,3.09C27.09,50.78,27.69,51.34,28.58,52.5Z"/><path class="cls-3" d="M32.67,46.72a3.58,3.58,0,0,1-1-1.56,3.13,3.13,0,0,1,.51-3,2.5,2.5,0,0,1,3.55.39l5.4,7.61-4.54-1.75-2.27-.87a4.52,4.52,0,0,1-1.7-.78Z"/><path class="cls-4" d="M43.93,51.57c-.94-.93-1.27-3.26,0-4.08a2.23,2.23,0,0,1,3.09.66l4.18,7.17-4-2c-.57-.29-1.13-.62-1.71-.88a4.86,4.86,0,0,1-1.55-.87Z"/><path class="cls-3" d="M103,52.5s-.21-4-3-4.55l3-3.79a11.87,11.87,0,0,1,2.66-3,2.54,2.54,0,0,1,2.94,0,2.66,2.66,0,0,1,.7,1.8c.13,1.63-.75,2.44-1.62,3.57l-2.36,3.09C104.45,50.78,103.85,51.34,103,52.5Z"/><path class="cls-3" d="M99.15,46.33a3.63,3.63,0,0,0,1-1.53,3.17,3.17,0,0,0-.46-3.06,2.5,2.5,0,0,0-3.56.3l-5.54,7.48,4.57-1.64,2.29-.81a4.48,4.48,0,0,0,1.71-.74Z"/><path class="cls-4" d="M87.82,51.08c.94-.93,1.27-3.26,0-4.08a2.23,2.23,0,0,0-3.09.66l-4.18,7.17,4-2c.57-.29,1.13-.62,1.71-.88a4.86,4.86,0,0,0,1.55-.87Z"/></g></g></svg>