<?xml version="1.0" encoding="UTF-8"?>
<svg id="Calque_7" data-name="Calque 7" xmlns="http://www.w3.org/2000/svg" viewBox="0 0 328.95 279.37">
  <defs>
    <style>
      .cls-1 {
        stroke-width: .86px;
      }

      .cls-1, .cls-2 {
        fill: #b5d2ea;
        stroke: #b5d2ea;
        stroke-miterlimit: 10;
      }

      .cls-3 {
        fill: #ebb7b5;
      }

      .cls-4 {
        fill: #688196;
      }

      .cls-2 {
        stroke-width: .76px;
      }
    </style>
  </defs>
  <path class="cls-4" d="M114.92,94.91c0-.08,0-.17.01-.25.03-.43.05-.9-.18-1.27-.44-.68-1.31-.55-2-.57-.39-.01-.79-.02-1.19-.02-.81,0-1.64.08-2.45.03,0,0-2.29-.13-2.29-5.14s2.61-5.01,2.61-5.01h21.32s2.75.67,2.65,4.3-.99,5.84-2.33,5.84-4.53.03-4.53.03c0,0-1.16,0-1.16,2.04v18.96s-1.54,2.62-5.27,2.62-5.24-2.57-5.24-2.57v-11.55c0-1.29,0-2.57,0-3.86,0-1.2-.02-2.39.04-3.58Z"/>
  <path class="cls-4" d="M146.44,82.42c-.57.04-1.15.1-1.71.19-2.38.38-4.79,1.43-6.14,3.42-.99,1.46-1.31,3.26-1.48,5.02-.33,3.46-.12,6.94-.18,10.42-.03,2.05-.16,4.1.01,6.14.31,3.71,1.83,7.89,5.71,9.07,1.68.51,3.46.51,5.22.5,1.94,0,3.88-.01,5.83-.02,1.13,0,2.47-.12,3.03-1.1.21-.37.27-.8.31-1.22.18-1.8.12-3.62-.19-5.4-.07-.39-.15-.79-.39-1.12-.53-.72-1.56-.78-2.46-.77-1.24.01-2.47.03-3.71.04-.73,0-1.48.01-2.16-.26s-1.26-.9-1.26-1.63c0-1.03,1.12-1.71,2.13-1.91,1.46-.29,2.97-.03,4.46.04.76.04,1.6,0,2.17-.51.44-.41.61-1.02.71-1.62.2-1.21.17-2.45-.08-3.64-.12-.59-.32-1.2-.8-1.58-.55-.43-1.31-.43-2.01-.42-1.19.02-2.38,0-3.57-.06-.7-.03-1.47-.12-1.92-.66-.5-.61-.31-1.6.26-2.15s1.39-.75,2.19-.79c1.04-.04,2.08.17,3.13.16s2.16-.28,2.84-1.07c.68-.79.77-1.92.78-2.97.01-1.02-.02-2.05-.1-3.07-.04-.58-.11-1.18-.38-1.69-.42-.77-1.26-1.22-2.12-1.4s-1.74-.1-2.61-.07c-1.83.07-3.68-.02-5.51.11Z"/>
  <circle class="cls-3" cx="226.74" cy="113.23" r="5.3"/>
  <path class="cls-4" d="M179.72,84.27c-.05-.62-.2-1.21-.64-1.63-.4-.39-.98-.54-1.53-.64-3.15-.56-6.5.2-9.1,2.07s-4.39,4.81-4.86,7.97c-.55,3.71.67,7.5,2.49,10.78.63,1.15,1.37,2.43.98,3.68-.45,1.47-2.32,2.1-3.81,1.72-.62-.16-1.46-.36-1.76.2-.09.17-.1.36-.1.55-.06,2.06-.1,4.12-.1,6.19,0,.77-.2,1.7.3,2.33s1.49.92,2.26,1.08c4.13.86,8.66-.55,11.57-3.6,2.91-3.05,4.12-7.64,3.07-11.72-.48-1.86-1.38-3.59-2.39-5.23-.56-.9-1.17-1.86-1.15-2.92.04-1.68,1.81-2.96,3.49-2.9.4.01.88.05,1.12-.27.14-.19.15-.44.15-.68,0-2.06,0-4.12,0-6.18,0-.26,0-.54-.03-.81Z"/>
  <path class="cls-4" d="M201.89,84.27c-.05-.62-.2-1.21-.64-1.63-.4-.39-.98-.54-1.53-.64-3.15-.56-6.5.2-9.1,2.07s-4.39,4.81-4.86,7.97c-.55,3.71.67,7.5,2.49,10.78.63,1.15,1.37,2.43.98,3.68-.45,1.47-2.32,2.1-3.81,1.72-.62-.16-1.46-.36-1.76.2-.09.17-.1.36-.1.55-.06,2.06-.1,4.12-.1,6.19,0,.77-.2,1.7.3,2.33s1.49.92,2.26,1.08c4.13.86,8.66-.55,11.57-3.6s4.12-7.64,3.07-11.72c-.48-1.86-1.38-3.59-2.39-5.23-.56-.9-1.17-1.86-1.15-2.92.04-1.68,1.81-2.96,3.49-2.9.4.01.88.05,1.12-.27.14-.19.15-.44.15-.68,0-2.06,0-4.12,0-6.18,0-.26,0-.54-.03-.81Z"/>
  <path class="cls-4" d="M216.63,112c.05.72.1,1.43.15,2.15.08,1.21.06,2.65-.95,3.32-.48.32-1.08.38-1.65.43-1.59.12-3.19.14-4.79.07-.91-.04-1.96-.17-2.6-.89-.81-.9-.6-2.55-.59-3.67.03-2.54.07-5.08.1-7.61.04-3.26.08-6.52.06-9.77-.01-1.58-.04-3.17.28-4.72.53-2.6,2.03-4.98,4.09-6.66,2.21-1.79,5.01-2.77,7.85-2.99,2.42-.18,4.91.19,7.09,1.25s4.05,2.83,5.05,5.05c1.04,2.32,1.1,4.95,1.13,7.49.07,5.07.14,10.14.21,15.2-.57-2.3-2.69-4.16-5.05-4.3s-4.75,1.53-5.3,3.83c-.06-4.65-.11-9.31-.17-13.96-.01-.89-.03-1.8-.37-2.62s-1.09-1.54-1.97-1.57c-1.33-.05-2.25,1.41-2.39,2.74-.15,1.47.11,2.92-.09,4.39-.04.28-.02.6.17.8.21.23.55.27.86.24s.61-.11.92-.06c.88.14,1.03,1.09,1.06,1.82.06,1.87.1,3.74.11,5.62,0,.7-.09,1.57-.74,1.84-.68.29-1.56-.29-2.15.14-.41.3-.42.9-.38,1.41.02.35.05.69.07,1.04Z"/>
  <g>
    <path class="cls-1" d="M169.12,175.98c.54-.6.32-2.48.37-3.14.11-1.51.22-3.02.32-4.53.18-2.83.29-5.67.18-8.51-.22-5.44-1.51-11.05-4.8-15.08-3.03-3.71-7.38-5.65-11.39-7.94-3.83-2.19-7.56-4.82-11.8-5.7-1.02-.21-2.08-.31-3.07.04s-1.86,1.27-1.99,2.41c-.3,2.64,2.78,3.92,4.44,4.85,1.76.99,3.53,1.97,5.3,2.93.45.25,4.25,1.9,3.05,2.99-.28.25-.69.14-1.03,0-8.7-3.33-16.42-9.79-21.72-18.18-.93-1.47-1.86-3.06-3.32-3.8s-3.61-.09-3.91,1.67c-.2,1.16.45,2.27,1.07,3.23,1.25,1.95,2.5,3.89,3.75,5.84,2.49,3.88,4.99,7.77,7.9,11.28,5.2,6.25,11.58,11.11,18.02,15.71.77.55,1.56,1.13,2.02,2.01.44.84.5,1.86.54,2.83.14,3.57.04,7.14-.06,10.71,0,.15,0,.31.11.41.09.09.23.09.36.09,4.81.06,9.62.11,14.43.17.38,0,.77,0,1.09-.19.05-.03.1-.07.14-.11Z"/>
    <path class="cls-1" d="M175.94,175.81s-.03,0-.03,0c-.18-5.44-.91-10.86-.68-16.3.22-5.44,1.51-11.05,4.8-15.08,3.03-3.71,7.38-5.65,11.39-7.94,3.83-2.19,7.56-4.82,11.8-5.7,1.02-.21,2.08-.31,3.07.04s1.86,1.27,1.99,2.41c.3,2.64-2.78,3.92-4.44,4.85-1.76.99-3.53,1.97-5.3,2.93-.45.25-4.25,1.9-3.05,2.99.28.25.69.14,1.03,0,8.7-3.33,16.42-9.79,21.72-18.18.93-1.47,1.86-3.06,3.32-3.8s3.61-.09,3.91,1.67c.2,1.16-.45,2.27-1.07,3.23-1.25,1.95-2.5,3.89-3.75,5.84-2.49,3.88-4.99,7.77-7.9,11.28-5.2,6.25-11.58,11.11-18.02,15.71-.77.55-1.56,1.13-2.02,2.01-.44.84-.5,1.86-.54,2.83-.12,3.19-.06,6.38.03,9.57.01.38.03.77.03,1.15.01.54-.04.48-.52.48-.72,0-1.45,0-2.17,0h-4.34c-.75,0-8.67.05-9.25,0Z"/>
    <path class="cls-1" d="M135.4,134.12s.21-4.03,2.97-4.55c-1.01-1.26-2.02-2.52-3.03-3.79-.82-1.03-1.55-2.29-2.66-2.97-.84-.52-2.14-.76-2.94-.03-.48.44-.65,1.13-.7,1.8-.13,1.63.75,2.44,1.62,3.57l2.36,3.09c.89,1.16,1.49,1.72,2.38,2.88Z"/>
    <path class="cls-1" d="M139.49,128.34c-.44-.41-.77-.95-.96-1.56-.31-1.01-.23-2.3.51-3.04,1.93-1.57,3.55.39,3.55.39,0,0,5.4,7.61,5.4,7.61-1.51-.58-3.03-1.17-4.54-1.75-.76-.29-1.51-.58-2.27-.87-.59-.22-1.19-.31-1.7-.78Z"/>
    <path class="cls-2" d="M150.75,133.19c-.94-.93-1.27-3.26-.04-4.08,1.81-1.2,3.09.66,3.09.66,0,0,4.18,7.17,4.18,7.17-1.32-.67-2.64-1.33-3.96-2-.57-.29-1.13-.62-1.71-.88-.53-.24-1.11-.43-1.55-.87Z"/>
    <path class="cls-1" d="M209.78,134.12s-.21-4.03-2.97-4.55c1.01-1.26,2.02-2.52,3.03-3.79.82-1.03,1.55-2.29,2.66-2.97.84-.52,2.14-.76,2.94-.03.48.44.65,1.13.7,1.8.13,1.63-.75,2.44-1.62,3.57l-2.36,3.09c-.89,1.16-1.49,1.72-2.38,2.88Z"/>
    <path class="cls-1" d="M205.97,127.95c.44-.4.79-.93.99-1.53.32-1,.27-2.3-.46-3.06-1.89-1.62-3.56.3-3.56.3,0,0-5.54,7.48-5.54,7.48,1.52-.55,3.05-1.09,4.57-1.64.76-.27,1.52-.54,2.29-.81.59-.21,1.2-.28,1.71-.74Z"/>
    <path class="cls-2" d="M194.64,132.7c.94-.93,1.27-3.26.04-4.08-1.81-1.2-3.09.66-3.09.66,0,0-4.18,7.17-4.18,7.17,1.32-.67,2.64-1.33,3.96-2,.57-.29,1.13-.62,1.71-.88.53-.24,1.11-.43,1.55-.87Z"/>
  </g>
</svg>